# xmcd
#
# Track frame offsets: 
#        150
#        33847
#        61474
#        88644
#        110890
#        134846
#        154128
#        171185
#        193942
#        211202
#        238305
#        269007
#        299424
#
# Disc length: 4413 seconds
#
# Revision: 4
# Processed by: cddbd v1.5.2PL0 Copyright (c) Steve Scherf et al.
# Submitted via: ExactAudioCopyFreeDBPlugin 1.0
#
DISCID=d3113b0d
DTITLE=The Robert Cray Band - 4 Nights of 40 Years Live
DYEAR=2014
DGENRE=Blues
TTITLE0=I Shiver
TTITLE1=I'll Always Remember You
TTITLE2=Poor Johnny
TTITLE3=Won't Be Coming Home
TTITLE4=Your Good Thing Is About To End
TTITLE5=Sittin' On Top of The world
TTITLE6=Wrap It Up
TTITLE7=Love Gone To Waste
TTITLE8=Bad Influence
TTITLE9=These Things
TTITLE10=Right Next Door (Because Of Me)
TTITLE11=The Forecast (Calls For Pain)
TTITLE12=Time Makes Two
EXTD=
EXTT0=
EXTT1=
EXTT2=
EXTT3=
EXTT4=
EXTT5=
EXTT6=
EXTT7=
EXTT8=
EXTT9=
EXTT10=
EXTT11=
EXTT12=
PLAYORDER=
